<?xml version="1.0" encoding="UTF-8" standalone="no"?>
<!-- Created with Inkscape (http://www.inkscape.org/) -->

<svg
   width="82.92395mm"
   height="25.638941mm"
   viewBox="0 0 82.92395 25.638941"
   version="1.1"
   id="svg5"
   inkscape:version="1.1.2 (0a00cf5339, 2022-02-04)"
   sodipodi:docname="CAS_logo.svg"
   xmlns:inkscape="http://www.inkscape.org/namespaces/inkscape"
   xmlns:sodipodi="http://sodipodi.sourceforge.net/DTD/sodipodi-0.dtd"
   xmlns="http://www.w3.org/2000/svg"
   xmlns:svg="http://www.w3.org/2000/svg">
  <sodipodi:namedview
     id="namedview7"
     pagecolor="#ffffff"
     bordercolor="#666666"
     borderopacity="1.0"
     inkscape:pageshadow="2"
     inkscape:pageopacity="0.0"
     inkscape:pagecheckerboard="0"
     inkscape:document-units="mm"
     showgrid="false"
     fit-margin-top="0"
     fit-margin-left="0"
     fit-margin-right="0"
     fit-margin-bottom="0"
     inkscape:zoom="0.77771465"
     inkscape:cx="106.72295"
     inkscape:cy="-107.36586"
     inkscape:window-width="1920"
     inkscape:window-height="1146"
     inkscape:window-x="0"
     inkscape:window-y="26"
     inkscape:window-maximized="1"
     inkscape:current-layer="g981" />
  <defs
     id="defs2" />
  <g
     inkscape:label="Layer 1"
     inkscape:groupmode="layer"
     id="layer1"
     transform="translate(-76.929778,-177.01558)">
    <g
       id="g981"
       transform="matrix(0.03527778,0,0,-0.03527778,76.929778,202.65466)">
      <path
         d="M 848.43,6.51953 H 2350.6"
         style="fill:none;stroke:#ee213a;stroke-width:12.8193;stroke-linecap:butt;stroke-linejoin:miter;stroke-miterlimit:4;stroke-dasharray:none;stroke-opacity:1"
         id="path983" />
      <path
         d="m 913.738,643.438 c -15.086,0 -26.992,-5.036 -35.718,-15.075 -8.735,-10.039 -13.106,-23.785 -13.106,-41.258 0,-17.98 4.219,-31.851 12.633,-41.64 8.422,-9.793 20.418,-14.699 36.016,-14.699 9.566,0 20.492,1.726 32.761,5.156 v -13.969 c -9.515,-3.582 -21.258,-5.355 -35.215,-5.355 -20.218,0 -35.82,6.132 -46.796,18.402 -10.993,12.266 -16.473,29.691 -16.473,52.305 0,14.121 2.64,26.511 7.926,37.175 5.293,10.618 12.925,18.829 22.91,24.59 9.988,5.758 21.742,8.641 35.262,8.641 14.382,0 26.968,-2.633 37.73,-7.891 l -6.758,-13.691 c -10.39,4.875 -20.781,7.309 -31.172,7.309"
         style="fill:#ee213a;fill-opacity:1;fill-rule:nonzero;stroke:none"
         id="path985" />
      <path
         d="m 1013.18,610.211 c -8.27,0 -14.852,-2.703 -19.774,-8.09 -4.91,-5.379 -7.808,-12.84 -8.687,-22.332 h 53.801 c 0,9.816 -2.19,17.356 -6.57,22.559 -4.38,5.234 -10.64,7.863 -18.77,7.863 z m 4.21,-93.613 c -15.2,0 -27.202,4.629 -35.999,13.894 -8.789,9.262 -13.196,22.11 -13.196,38.582 0,16.574 4.09,29.77 12.254,39.531 8.176,9.766 19.145,14.653 32.911,14.653 12.9,0 23.1,-4.262 30.61,-12.723 7.51,-8.484 11.27,-19.676 11.27,-33.574 v -9.867 h -70.896 c 0.312,-12.067 3.367,-21.254 9.164,-27.489 5.781,-6.285 13.942,-9.39 24.462,-9.39 11.07,0 22.02,2.305 32.85,6.937 v -13.894 c -5.51,-2.379 -10.72,-4.082 -15.63,-5.11 -4.92,-1.054 -10.84,-1.55 -17.8,-1.55"
         style="fill:#ee213a;fill-opacity:1;fill-rule:nonzero;stroke:none"
         id="path987" />
      <path
         d="m 1152.23,518.473 v 66.574 c 0,8.363 -1.91,14.648 -5.72,18.781 -3.83,4.129 -9.8,6.18 -17.94,6.18 -10.76,0 -18.65,-2.899 -23.66,-8.735 -5,-5.808 -7.51,-15.425 -7.51,-28.82 v -53.98 h -15.59 v 102.902 h 12.67 l 2.55,-14.098 h 0.75 c 3.19,5.086 7.66,9.016 13.43,11.797 5.75,2.781 12.17,4.184 19.24,4.184 12.4,0 21.72,-3.004 27.98,-8.965 6.26,-5.984 9.39,-15.551 9.39,-28.691 v -67.129 h -15.59"
         style="fill:#ee213a;fill-opacity:1;fill-rule:nonzero;stroke:none"
         id="path989" />
      <path
         d="m 1233.06,529.469 c 2.76,0 5.41,0.199 7.98,0.597 2.57,0.403 4.61,0.829 6.12,1.278 v -11.946 c -1.69,-0.8 -4.19,-1.472 -7.47,-2 -3.3,-0.554 -6.25,-0.8 -8.87,-0.8 -19.91,0 -29.87,10.461 -29.87,31.445 v 61.219 h -14.74 v 7.511 l 14.74,6.485 6.58,21.957 h 9.01 v -23.84 h 29.86 v -12.113 h -29.86 v -60.567 c 0,-6.187 1.46,-10.941 4.42,-14.273 2.93,-3.305 6.98,-4.953 12.1,-4.953"
         style="fill:#ee213a;fill-opacity:1;fill-rule:nonzero;stroke:none"
         id="path991" />
      <path
         d="m 1314.67,623.258 c 4.57,0 8.66,-0.379 12.29,-1.129 l -2.16,-14.473 c -4.25,0.949 -8.01,1.43 -11.26,1.43 -8.33,0 -15.45,-3.383 -21.36,-10.141 -5.92,-6.761 -8.87,-15.203 -8.87,-25.265 v -55.207 h -15.59 v 102.902 h 12.87 l 1.78,-19.051 h 0.75 c 3.82,6.684 8.41,11.844 13.79,15.473 5.38,3.633 11.31,5.461 17.76,5.461"
         style="fill:#ee213a;fill-opacity:1;fill-rule:nonzero;stroke:none"
         id="path993" />
      <path
         d="m 1385.46,610.211 c -8.27,0 -14.85,-2.703 -19.77,-8.09 -4.9,-5.379 -7.81,-12.84 -8.68,-22.332 h 53.8 c 0,9.816 -2.19,17.356 -6.57,22.559 -4.38,5.234 -10.64,7.863 -18.78,7.863 z m 4.21,-93.613 c -15.19,0 -27.19,4.629 -35.99,13.894 -8.79,9.262 -13.2,22.11 -13.2,38.582 0,16.574 4.1,29.77 12.25,39.531 8.18,9.766 19.14,14.653 32.92,14.653 12.89,0 23.1,-4.262 30.61,-12.723 7.51,-8.484 11.27,-19.676 11.27,-33.574 v -9.867 h -70.9 c 0.31,-12.067 3.37,-21.254 9.16,-27.489 5.79,-6.285 13.94,-9.39 24.46,-9.39 11.08,0 22.02,2.305 32.85,6.937 v -13.894 c -5.51,-2.379 -10.71,-4.082 -15.62,-5.11 -4.92,-1.054 -10.84,-1.55 -17.81,-1.55"
         style="fill:#ee213a;fill-opacity:1;fill-rule:nonzero;stroke:none"
         id="path995" />
      <path
         d="m 1550.42,609.262 h -26.2 v -90.789 h -15.58 v 90.789 h -18.4 v 7.031 l 18.4,5.637 v 5.73 c 0,25.289 11.04,37.934 33.14,37.934 5.44,0 11.83,-1.102 19.15,-3.281 l -4.04,-12.493 c -6,1.926 -11.14,2.903 -15.4,2.903 -5.88,0 -10.22,-1.953 -13.04,-5.86 -2.82,-3.906 -4.23,-10.187 -4.23,-18.828 v -6.66 h 26.2 v -12.113"
         style="fill:#ee213a;fill-opacity:1;fill-rule:nonzero;stroke:none"
         id="path997" />
      <path
         d="m 1579.62,570.023 c 0,-13.144 2.62,-23.183 7.88,-30.043 5.26,-6.91 13,-10.343 23.2,-10.343 10.21,0 17.95,3.433 23.23,10.293 5.3,6.836 7.94,16.875 7.94,30.093 0,13.071 -2.64,23.012 -7.94,29.793 -5.28,6.789 -13.09,10.192 -23.42,10.192 -10.2,0 -17.91,-3.356 -23.1,-10.039 -5.2,-6.707 -7.79,-16.699 -7.79,-29.946 z m 78.39,0 c 0,-16.796 -4.21,-29.89 -12.67,-39.304 -8.44,-9.414 -20.12,-14.121 -35.02,-14.121 -9.2,0 -17.36,2.152 -24.49,6.48 -7.14,4.309 -12.66,10.52 -16.54,18.582 -3.88,8.086 -5.83,17.524 -5.83,28.363 0,16.754 4.2,29.825 12.6,39.184 8.37,9.367 20.01,14.051 34.92,14.051 14.39,0 25.83,-4.781 34.32,-14.371 8.48,-9.567 12.71,-22.535 12.71,-38.864"
         style="fill:#ee213a;fill-opacity:1;fill-rule:nonzero;stroke:none"
         id="path999" />
      <path
         d="m 1732.29,623.258 c 4.57,0 8.66,-0.379 12.3,-1.129 l -2.16,-14.473 c -4.25,0.949 -8.01,1.43 -11.26,1.43 -8.33,0 -15.45,-3.383 -21.36,-10.141 -5.93,-6.761 -8.88,-15.203 -8.88,-25.265 v -55.207 h -15.58 v 102.902 h 12.87 l 1.78,-19.051 h 0.75 c 3.82,6.684 8.41,11.844 13.79,15.473 5.39,3.633 11.31,5.461 17.75,5.461"
         style="fill:#ee213a;fill-opacity:1;fill-rule:nonzero;stroke:none"
         id="path1001" />
      <path
         d="m 919.195,384.191 -15.976,42.547 c -2.051,5.379 -4.196,11.992 -6.379,19.805 -1.379,-6.012 -3.348,-12.621 -5.91,-19.805 l -16.153,-42.547 z m 22.059,-58.003 -17.086,43.66 h -55.02 l -16.906,-43.66 h -16.144 l 54.265,137.832 h 13.434 l 53.984,-137.832 h -16.527"
         style="fill:#ee213a;fill-opacity:1;fill-rule:nonzero;stroke:none"
         id="path1003" />
      <path
         d="m 1040.68,354.254 c 0,-9.563 -3.55,-16.977 -10.69,-22.16 -7.14,-5.203 -17.17,-7.781 -30.049,-7.781 -13.656,0 -24.3,2.148 -31.921,6.484 v 14.441 c 4.929,-2.5 10.238,-4.48 15.914,-5.91 5.652,-1.453 11.129,-2.156 16.386,-2.156 8.12,0 14.38,1.277 18.77,3.887 4.37,2.597 6.57,6.55 6.57,11.894 0,3.977 -1.73,7.402 -5.21,10.266 -3.47,2.847 -10.25,6.211 -20.33,10.086 -9.565,3.586 -16.378,6.687 -20.421,9.336 -4.035,2.683 -7.035,5.683 -9.011,9.062 -1.969,3.391 -2.958,7.442 -2.958,12.125 0,8.383 3.407,14.992 10.231,19.852 6.82,4.859 16.187,7.285 28.079,7.285 11.08,0 21.91,-2.25 32.48,-6.758 L 1033,411.535 c -10.35,4.235 -19.7,6.391 -28.09,6.391 -7.383,0 -12.957,-1.18 -16.711,-3.485 -3.754,-2.328 -5.633,-5.507 -5.633,-9.589 0,-2.754 0.704,-5.114 2.114,-7.036 1.406,-1.953 3.672,-3.781 6.8,-5.539 3.129,-1.746 9.14,-4.304 18.03,-7.605 12.22,-4.453 20.45,-8.914 24.74,-13.418 4.29,-4.512 6.43,-10.195 6.43,-17"
         style="fill:#ee213a;fill-opacity:1;fill-rule:nonzero;stroke:none"
         id="path1005" />
      <path
         d="m 1099.27,337.172 c 2.76,0 5.41,0.207 7.98,0.605 2.57,0.403 4.61,0.821 6.12,1.282 v -11.946 c -1.69,-0.8 -4.19,-1.484 -7.46,-2.004 -3.31,-0.554 -6.25,-0.796 -8.88,-0.796 -19.91,0 -29.87,10.457 -29.87,31.445 v 61.215 h -14.74 v 7.507 l 14.74,6.485 6.58,21.961 h 9.01 V 429.09 h 29.86 v -12.117 h -29.86 v -60.575 c 0,-6.179 1.47,-10.933 4.42,-14.265 2.93,-3.301 6.98,-4.961 12.1,-4.961"
         style="fill:#ee213a;fill-opacity:1;fill-rule:nonzero;stroke:none"
         id="path1007" />
      <path
         d="m 1180.87,430.965 c 4.57,0 8.66,-0.375 12.29,-1.125 L 1191,415.371 c -4.25,0.945 -8,1.426 -11.27,1.426 -8.32,0 -15.44,-3.379 -21.35,-10.145 -5.92,-6.754 -8.87,-15.191 -8.87,-25.261 v -55.203 h -15.59 V 429.09 h 12.86 l 1.78,-19.059 h 0.75 c 3.82,6.688 8.42,11.848 13.8,15.477 5.38,3.633 11.31,5.457 17.76,5.457"
         style="fill:#ee213a;fill-opacity:1;fill-rule:nonzero;stroke:none"
         id="path1009" />
      <path
         d="m 1222.83,377.738 c 0,-13.144 2.63,-23.183 7.88,-30.047 5.26,-6.906 13,-10.343 23.2,-10.343 10.21,0 17.95,3.437 23.24,10.293 5.29,6.836 7.93,16.875 7.93,30.097 0,13.067 -2.64,23.008 -7.93,29.793 -5.29,6.785 -13.1,10.192 -23.42,10.192 -10.21,0 -17.91,-3.36 -23.11,-10.043 -5.19,-6.707 -7.79,-16.7 -7.79,-29.942 z m 78.41,0 c 0,-16.804 -4.22,-29.89 -12.69,-39.304 -8.44,-9.414 -20.12,-14.121 -35.02,-14.121 -9.2,0 -17.36,2.148 -24.49,6.484 -7.14,4.305 -12.66,10.508 -16.53,18.57 -3.89,8.086 -5.83,17.531 -5.83,28.371 0,16.746 4.2,29.821 12.59,39.18 8.37,9.363 20.02,14.047 34.93,14.047 14.38,0 25.83,-4.777 34.31,-14.367 8.48,-9.567 12.73,-22.539 12.73,-38.86"
         style="fill:#ee213a;fill-opacity:1;fill-rule:nonzero;stroke:none"
         id="path1011" />
      <path
         d="m 1374.2,417.723 c -10.52,0 -18.12,-2.907 -22.83,-8.739 -4.68,-5.812 -7.1,-15.074 -7.22,-27.789 v -3.457 c 0,-14.472 2.4,-24.812 7.22,-31.047 4.82,-6.238 12.55,-9.343 23.2,-9.343 8.88,0 15.85,3.601 20.9,10.793 5.03,7.214 7.55,17.129 7.55,29.773 0,12.813 -2.52,22.68 -7.55,29.516 -5.05,6.859 -12.14,10.293 -21.27,10.293 z m 2.24,-93.41 c -6.69,0 -12.81,1.218 -18.35,3.699 -5.54,2.48 -10.18,6.261 -13.94,11.418 h -1.13 c 0.76,-6.008 1.13,-11.719 1.13,-17.102 v -42.336 h -15.59 V 429.09 h 12.67 l 2.17,-14.098 h 0.75 c 4,5.633 8.66,9.715 13.98,12.219 5.32,2.504 11.43,3.754 18.31,3.754 13.65,0 24.18,-4.684 31.6,-13.992 7.42,-9.34 11.14,-22.407 11.14,-39.235 0,-16.902 -3.79,-30.047 -11.32,-39.414 -7.55,-9.336 -18.02,-14.011 -31.42,-14.011"
         style="fill:#ee213a;fill-opacity:1;fill-rule:nonzero;stroke:none"
         id="path1013" />
      <path
         d="m 1516.8,326.188 v 66.57 c 0,8.363 -1.91,14.648 -5.72,18.777 -3.83,4.133 -9.79,6.188 -17.94,6.188 -10.82,0 -18.72,-2.957 -23.71,-8.813 -4.96,-5.914 -7.46,-15.547 -7.46,-28.918 v -53.804 h -15.59 v 146.089 h 15.59 v -44.214 c 0,-5.333 -0.24,-9.739 -0.74,-13.247 h 0.94 c 3.06,4.934 7.43,8.84 13.09,11.692 5.66,2.832 12.13,4.258 19.39,4.258 12.58,0 22.02,-2.981 28.31,-8.965 6.29,-5.981 9.43,-15.473 9.43,-28.485 v -67.128 h -15.59"
         style="fill:#ee213a;fill-opacity:1;fill-rule:nonzero;stroke:none"
         id="path1015" />
      <path
         d="m 1548.08,429.09 h 16.71 l 22.53,-58.688 c 4.95,-13.394 8.02,-23.062 9.21,-29.019 h 0.75 c 0.81,3.203 2.51,8.66 5.12,16.394 2.59,7.715 11.09,31.504 25.49,71.313 h 16.71 l -44.23,-117.184 c -4.38,-11.59 -9.49,-19.801 -15.34,-24.656 -5.85,-4.836 -13.04,-7.258 -21.56,-7.258 -4.75,0 -9.45,0.52 -14.08,1.606 v 12.461 c 3.45,-0.754 7.29,-1.125 11.54,-1.125 10.72,0 18.34,6.007 22.91,18.027 l 5.74,14.648 -41.5,103.481"
         style="fill:#ee213a;fill-opacity:1;fill-rule:nonzero;stroke:none"
         id="path1017" />
      <path
         d="m 1727.68,354.254 c 0,-9.563 -3.55,-16.977 -10.68,-22.16 -7.14,-5.203 -17.17,-7.781 -30.05,-7.781 -13.66,0 -24.3,2.148 -31.92,6.484 v 14.441 c 4.93,-2.5 10.24,-4.48 15.9,-5.91 5.67,-1.453 11.14,-2.156 16.39,-2.156 8.13,0 14.39,1.277 18.78,3.887 4.38,2.597 6.56,6.55 6.56,11.894 0,3.977 -1.73,7.402 -5.2,10.266 -3.47,2.847 -10.26,6.211 -20.33,10.086 -9.56,3.586 -16.38,6.687 -20.42,9.336 -4.04,2.683 -7.04,5.683 -9.02,9.062 -1.96,3.391 -2.95,7.442 -2.95,12.125 0,8.383 3.4,14.992 10.23,19.852 6.82,4.859 16.18,7.285 28.07,7.285 11.09,0 21.92,-2.25 32.49,-6.758 L 1720,411.535 c -10.34,4.235 -19.69,6.391 -28.08,6.391 -7.38,0 -12.96,-1.18 -16.71,-3.485 -3.76,-2.328 -5.63,-5.507 -5.63,-9.589 0,-2.754 0.69,-5.114 2.11,-7.036 1.4,-1.953 3.67,-3.781 6.79,-5.539 3.14,-1.746 9.14,-4.304 18.03,-7.605 12.23,-4.453 20.46,-8.914 24.76,-13.418 4.27,-4.512 6.41,-10.195 6.41,-17"
         style="fill:#ee213a;fill-opacity:1;fill-rule:nonzero;stroke:none"
         id="path1019" />
      <path
         d="m 1768.62,326.188 h -15.59 V 429.09 h 15.59 z m -16.89,130.792 c 0,3.555 0.86,6.161 2.62,7.836 1.75,1.653 3.95,2.477 6.57,2.477 2.5,0 4.66,-0.848 6.49,-2.523 1.81,-1.704 2.71,-4.305 2.71,-7.79 0,-3.531 -0.9,-6.132 -2.71,-7.859 -1.83,-1.707 -3.99,-2.578 -6.49,-2.578 -2.62,0 -4.82,0.871 -6.57,2.578 -1.76,1.727 -2.62,4.328 -2.62,7.859"
         style="fill:#ee213a;fill-opacity:1;fill-rule:nonzero;stroke:none"
         id="path1021" />
      <path
         d="m 1842.8,324.313 c -14.9,0 -26.43,4.578 -34.61,13.738 -8.15,9.16 -12.26,22.14 -12.26,38.933 0,17.2 4.16,30.496 12.46,39.883 8.3,9.391 20.09,14.098 35.44,14.098 4.94,0 9.89,-0.551 14.83,-1.602 4.94,-1.078 8.84,-2.328 11.64,-3.754 l -4.79,-13.246 c -3.43,1.375 -7.19,2.528 -11.26,3.434 -4.07,0.894 -7.67,1.375 -10.79,1.375 -20.91,0 -31.37,-13.344 -31.37,-40.012 0,-12.644 2.56,-22.332 7.66,-29.09 5.09,-6.765 12.66,-10.144 22.67,-10.144 8.57,0 17.36,1.824 26.38,5.535 V 329.66 c -6.89,-3.57 -15.55,-5.347 -26,-5.347"
         style="fill:#ee213a;fill-opacity:1;fill-rule:nonzero;stroke:none"
         id="path1023" />
      <path
         d="m 1959.59,354.254 c 0,-9.563 -3.56,-16.977 -10.7,-22.16 -7.14,-5.203 -17.15,-7.781 -30.05,-7.781 -13.65,0 -24.29,2.148 -31.91,6.484 v 14.441 c 4.93,-2.5 10.24,-4.48 15.91,-5.91 5.65,-1.453 11.12,-2.156 16.39,-2.156 8.12,0 14.38,1.277 18.77,3.887 4.37,2.597 6.57,6.55 6.57,11.894 0,3.977 -1.73,7.402 -5.22,10.266 -3.46,2.847 -10.25,6.211 -20.33,10.086 -9.56,3.586 -16.37,6.687 -20.41,9.336 -4.03,2.683 -7.04,5.683 -9.01,9.062 -1.98,3.391 -2.96,7.442 -2.96,12.125 0,8.383 3.41,14.992 10.22,19.852 6.83,4.859 16.19,7.285 28.09,7.285 11.07,0 21.9,-2.25 32.48,-6.758 l -5.53,-12.672 c -10.34,4.235 -19.7,6.391 -28.08,6.391 -7.39,0 -12.95,-1.18 -16.71,-3.485 -3.76,-2.328 -5.64,-5.507 -5.64,-9.589 0,-2.754 0.7,-5.114 2.12,-7.036 1.4,-1.953 3.66,-3.781 6.8,-5.539 3.12,-1.746 9.14,-4.304 18.03,-7.605 12.21,-4.453 20.44,-8.914 24.74,-13.418 4.29,-4.512 6.43,-10.195 6.43,-17"
         style="fill:#ee213a;fill-opacity:1;fill-rule:nonzero;stroke:none"
         id="path1025" />
      <path
         d="m 2062.97,337.172 c 9.69,0 17.32,2.656 22.87,7.969 5.53,5.332 8.3,12.761 8.3,22.351 v 9.289 l -15.58,-0.644 c -12.39,-0.449 -21.33,-2.383 -26.81,-5.789 -5.47,-3.403 -8.22,-8.711 -8.22,-15.903 0,-5.625 1.71,-9.929 5.13,-12.859 3.4,-2.957 8.17,-4.414 14.31,-4.414 z m 35.21,-10.984 -3.1,14.648 h -0.75 c -5.13,-6.469 -10.24,-10.82 -15.35,-13.098 -5.1,-2.304 -11.47,-3.425 -19.11,-3.425 -10.2,0 -18.2,2.625 -23.98,7.878 -5.8,5.262 -8.69,12.723 -8.69,22.43 0,20.781 16.62,31.684 49.86,32.68 l 17.45,0.574 v 6.387 c 0,8.062 -1.72,14.019 -5.21,17.875 -3.46,3.859 -9.02,5.789 -16.66,5.789 -8.57,0 -18.28,-2.633 -29.11,-7.895 l -4.77,11.922 c 5.06,2.754 10.61,4.906 16.66,6.485 6.03,1.55 12.09,2.328 18.16,2.328 12.27,0 21.36,-2.703 27.28,-8.164 5.9,-5.43 8.87,-14.168 8.87,-26.192 v -70.222 h -11.55"
         style="fill:#ee213a;fill-opacity:1;fill-rule:nonzero;stroke:none"
         id="path1027" />
      <path
         d="m 2212.25,326.188 v 66.57 c 0,8.363 -1.91,14.648 -5.72,18.777 -3.83,4.133 -9.8,6.188 -17.94,6.188 -10.76,0 -18.65,-2.907 -23.66,-8.739 -5,-5.812 -7.51,-15.425 -7.51,-28.824 v -53.972 h -15.59 V 429.09 h 12.67 l 2.55,-14.098 h 0.75 c 3.18,5.086 7.66,9.016 13.43,11.793 5.74,2.778 12.17,4.18 19.24,4.18 12.4,0 21.72,-3 27.98,-8.965 6.25,-5.98 9.39,-15.547 9.39,-28.684 v -67.128 h -15.59"
         style="fill:#ee213a;fill-opacity:1;fill-rule:nonzero;stroke:none"
         id="path1029" />
      <path
         d="m 2298.74,337.348 c 10.63,0 18.35,2.91 23.14,8.691 4.78,5.781 7.19,15.125 7.19,28.02 v 3.296 c 0,14.575 -2.43,24.993 -7.29,31.204 -4.85,6.234 -12.59,9.367 -23.24,9.367 -9.14,0 -16.13,-3.563 -20.97,-10.672 -4.87,-7.113 -7.29,-17.121 -7.29,-30.094 0,-13.14 2.41,-23.055 7.24,-29.773 4.81,-6.68 11.88,-10.039 21.22,-10.039 z m 31.17,2.629 h -0.84 c -7.22,-10.461 -17.98,-15.664 -32.31,-15.664 -13.46,0 -23.93,4.597 -31.4,13.789 -7.49,9.214 -11.23,22.285 -11.23,39.253 0,16.958 3.76,30.125 11.27,39.512 7.51,9.391 17.96,14.098 31.36,14.098 13.95,0 24.65,-5.082 32.1,-15.223 h 1.23 l -0.65,7.438 -0.37,7.211 v 41.886 h 15.57 V 326.188 h -12.67 l -2.06,13.789"
         style="fill:#ee213a;fill-opacity:1;fill-rule:nonzero;stroke:none"
         id="path1031" />
      <path
         d="m 932.43,170.426 c 0,-12.09 -4.379,-21.504 -13.145,-28.274 -8.765,-6.757 -20.66,-10.136 -35.68,-10.136 -16.273,0 -28.792,2.082 -37.558,6.289 v 15.39 c 5.637,-2.375 11.766,-4.25 18.402,-5.625 6.637,-1.379 13.207,-2.058 19.719,-2.058 10.641,0 18.652,2 24.035,6.035 5.383,4.058 8.074,9.668 8.074,16.875 0,4.734 -0.949,8.641 -2.867,11.668 -1.898,3.058 -5.094,5.832 -9.574,8.406 -4.469,2.563 -11.281,5.488 -20.422,8.742 -12.769,4.563 -21.894,9.973 -27.363,16.25 -5.485,6.242 -8.211,14.422 -8.211,24.492 0,10.586 3.969,19.004 11.918,25.262 7.949,6.262 18.461,9.387 31.547,9.387 13.644,0 26.187,-2.5 37.656,-7.512 l -4.984,-13.894 c -11.329,4.757 -22.344,7.136 -33.047,7.136 -8.453,0 -15.063,-1.836 -19.805,-5.437 -4.77,-3.652 -7.141,-8.684 -7.141,-15.117 0,-4.754 0.868,-8.66 2.633,-11.7 1.738,-3.027 4.707,-5.832 8.863,-8.359 4.168,-2.527 10.528,-5.332 19.102,-8.391 14.398,-5.156 24.313,-10.664 29.723,-16.519 5.418,-5.91 8.125,-13.52 8.125,-22.91"
         style="fill:#ee213a;fill-opacity:1;fill-rule:nonzero;stroke:none"
         id="path1033" />
      <path
         d="m 972.801,236.801 v -66.746 c 0,-8.418 1.902,-14.653 5.734,-18.782 3.805,-4.128 9.785,-6.21 17.926,-6.21 10.769,0 18.639,2.929 23.609,8.835 4.99,5.864 7.46,15.469 7.46,28.821 v 54.082 h 15.6 v -102.91 h -12.87 l -2.25,13.8 h -0.85 c -3.18,-5.058 -7.61,-8.964 -13.29,-11.64 -5.66,-2.68 -12.12,-4.035 -19.386,-4.035 -12.519,0 -21.882,2.961 -28.121,8.918 -6.218,5.925 -9.336,15.449 -9.336,28.543 v 67.324 h 15.774"
         style="fill:#ee213a;fill-opacity:1;fill-rule:nonzero;stroke:none"
         id="path1035" />
      <path
         d="m 1121.81,225.434 c -10.51,0 -18.11,-2.911 -22.82,-8.743 -4.68,-5.808 -7.1,-15.066 -7.23,-27.793 v -3.457 c 0,-14.468 2.41,-24.8 7.23,-31.043 4.83,-6.23 12.56,-9.335 23.19,-9.335 8.9,0 15.85,3.605 20.9,10.792 5.03,7.208 7.56,17.125 7.56,29.762 0,12.824 -2.53,22.688 -7.56,29.524 -5.05,6.867 -12.13,10.293 -21.27,10.293 z m 2.26,-93.418 c -6.7,0 -12.82,1.23 -18.36,3.711 -5.55,2.468 -10.19,6.257 -13.95,11.418 h -1.12 c 0.75,-6.016 1.12,-11.719 1.12,-17.102 V 87.6992 h -15.58 V 236.801 h 12.67 l 2.16,-14.102 h 0.75 c 4.02,5.637 8.67,9.715 13.99,12.227 5.32,2.5 11.43,3.75 18.32,3.75 13.64,0 24.17,-4.68 31.59,-13.992 7.41,-9.336 11.13,-22.414 11.13,-39.243 0,-16.89 -3.78,-30.039 -11.31,-39.402 -7.55,-9.336 -18.02,-14.023 -31.41,-14.023"
         style="fill:#ee213a;fill-opacity:1;fill-rule:nonzero;stroke:none"
         id="path1037" />
      <path
         d="m 1233.26,225.629 c -8.26,0 -14.85,-2.703 -19.78,-8.086 -4.9,-5.383 -7.8,-12.844 -8.68,-22.332 h 53.81 c 0,9.812 -2.2,17.352 -6.57,22.559 -4.39,5.234 -10.65,7.859 -18.78,7.859 z m 4.22,-93.613 c -15.21,0 -27.21,4.629 -36.01,13.894 -8.79,9.27 -13.19,22.113 -13.19,38.586 0,16.57 4.09,29.766 12.25,39.531 8.18,9.766 19.14,14.649 32.91,14.649 12.89,0 23.1,-4.258 30.61,-12.715 7.51,-8.484 11.27,-19.68 11.27,-33.574 v -9.871 h -70.9 c 0.31,-12.063 3.37,-21.25 9.17,-27.493 5.78,-6.281 13.95,-9.382 24.46,-9.382 11.07,0 22.03,2.3 32.85,6.929 v -13.894 c -5.51,-2.371 -10.72,-4.082 -15.62,-5.11 -4.92,-1.05 -10.85,-1.55 -17.8,-1.55"
         style="fill:#ee213a;fill-opacity:1;fill-rule:nonzero;stroke:none"
         id="path1039" />
      <path
         d="m 1348.84,238.676 c 4.58,0 8.67,-0.371 12.3,-1.121 l -2.16,-14.477 c -4.26,0.949 -8.01,1.43 -11.27,1.43 -8.32,0 -15.45,-3.379 -21.36,-10.141 -5.91,-6.765 -8.87,-15.203 -8.87,-25.262 v -55.214 h -15.59 v 102.91 h 12.87 l 1.78,-19.055 h 0.75 c 3.82,6.684 8.42,11.84 13.8,15.473 5.38,3.633 11.3,5.457 17.75,5.457"
         style="fill:#ee213a;fill-opacity:1;fill-rule:nonzero;stroke:none"
         id="path1041" />
      <path
         d="m 1421.51,132.016 c -14.89,0 -26.43,4.582 -34.6,13.75 -8.16,9.16 -12.25,22.129 -12.25,38.925 0,17.207 4.16,30.5 12.44,39.895 8.3,9.383 20.1,14.09 35.46,14.09 4.93,0 9.87,-0.547 14.81,-1.602 4.95,-1.074 8.85,-2.324 11.65,-3.758 l -4.78,-13.246 c -3.45,1.379 -7.2,2.532 -11.27,3.43 -4.07,0.906 -7.68,1.379 -10.8,1.379 -20.91,0 -31.36,-13.344 -31.36,-40.012 0,-12.637 2.55,-22.336 7.65,-29.094 5.1,-6.753 12.66,-10.132 22.68,-10.132 8.57,0 17.36,1.824 26.38,5.527 v -13.789 c -6.89,-3.586 -15.55,-5.363 -26.01,-5.363"
         style="fill:#ee213a;fill-opacity:1;fill-rule:nonzero;stroke:none"
         id="path1043" />
      <path
         d="m 1482.34,185.441 c 0,-13.14 2.63,-23.179 7.89,-30.039 5.26,-6.914 12.99,-10.339 23.19,-10.339 10.21,0 17.95,3.425 23.24,10.292 5.3,6.836 7.94,16.875 7.94,30.086 0,13.079 -2.64,23.02 -7.94,29.797 -5.29,6.785 -13.09,10.196 -23.42,10.196 -10.21,0 -17.9,-3.36 -23.1,-10.039 -5.19,-6.707 -7.8,-16.7 -7.8,-29.954 z m 78.41,0 c 0,-16.793 -4.22,-29.89 -12.69,-39.304 -8.43,-9.414 -20.11,-14.121 -35.01,-14.121 -9.2,0 -17.36,2.16 -24.5,6.484 -7.14,4.309 -12.65,10.52 -16.52,18.586 -3.9,8.086 -5.84,17.519 -5.84,28.355 0,16.758 4.2,29.829 12.6,39.192 8.38,9.363 20.02,14.043 34.93,14.043 14.38,0 25.82,-4.785 34.3,-14.375 8.48,-9.563 12.73,-22.528 12.73,-38.86"
         style="fill:#ee213a;fill-opacity:1;fill-rule:nonzero;stroke:none"
         id="path1045" />
      <path
         d="m 1719.25,133.891 v 66.953 c 0,8.191 -1.76,14.347 -5.26,18.429 -3.51,4.11 -8.96,6.161 -16.35,6.161 -9.7,0 -16.86,-2.786 -21.49,-8.36 -4.64,-5.566 -6.95,-14.148 -6.95,-25.722 v -57.461 h -15.59 v 66.953 c 0,8.191 -1.75,14.347 -5.25,18.429 -3.51,4.11 -9,6.161 -16.44,6.161 -9.76,0 -16.91,-2.93 -21.44,-8.789 -4.56,-5.829 -6.82,-15.418 -6.82,-28.77 v -53.984 h -15.59 v 102.91 h 12.68 l 2.54,-14.102 h 0.75 c 2.94,5.012 7.08,8.946 12.44,11.746 5.34,2.832 11.34,4.231 17.98,4.231 16.08,0 26.6,-5.828 31.54,-17.473 h 0.75 c 3.07,5.383 7.51,9.641 13.33,12.766 5.84,3.136 12.47,4.707 19.92,4.707 11.64,0 20.35,-3.008 26.15,-8.965 5.78,-5.977 8.67,-15.547 8.67,-28.691 v -67.129 h -15.57"
         style="fill:#ee213a;fill-opacity:1;fill-rule:nonzero;stroke:none"
         id="path1047" />
      <path
         d="m 1812.57,225.434 c -10.52,0 -18.12,-2.911 -22.83,-8.743 -4.68,-5.808 -7.1,-15.066 -7.22,-27.793 v -3.457 c 0,-14.468 2.4,-24.8 7.22,-31.043 4.82,-6.23 12.56,-9.335 23.2,-9.335 8.88,0 15.85,3.605 20.89,10.792 5.03,7.208 7.56,17.125 7.56,29.762 0,12.824 -2.53,22.688 -7.56,29.524 -5.04,6.867 -12.12,10.293 -21.26,10.293 z m 2.25,-93.418 c -6.7,0 -12.82,1.23 -18.36,3.711 -5.54,2.468 -10.18,6.257 -13.94,11.418 h -1.13 c 0.76,-6.016 1.13,-11.719 1.13,-17.102 V 87.6992 h -15.59 V 236.801 h 12.68 l 2.15,-14.102 h 0.76 c 4,5.637 8.66,9.715 13.98,12.227 5.32,2.5 11.44,3.75 18.32,3.75 13.64,0 24.17,-4.68 31.59,-13.992 7.42,-9.336 11.14,-22.414 11.14,-39.243 0,-16.89 -3.78,-30.039 -11.32,-39.402 -7.55,-9.336 -18.02,-14.023 -31.41,-14.023"
         style="fill:#ee213a;fill-opacity:1;fill-rule:nonzero;stroke:none"
         id="path1049" />
      <path
         d="m 1899.42,236.801 v -66.746 c 0,-8.418 1.91,-14.653 5.73,-18.782 3.81,-4.128 9.79,-6.21 17.93,-6.21 10.76,0 18.65,2.929 23.61,8.835 4.99,5.864 7.46,15.469 7.46,28.821 v 54.082 h 15.6 v -102.91 h -12.87 l -2.25,13.8 h -0.85 c -3.19,-5.058 -7.61,-8.964 -13.28,-11.64 -5.67,-2.68 -12.13,-4.035 -19.4,-4.035 -12.52,0 -21.88,2.961 -28.11,8.918 -6.23,5.925 -9.34,15.449 -9.34,28.543 v 67.324 h 15.77"
         style="fill:#ee213a;fill-opacity:1;fill-rule:nonzero;stroke:none"
         id="path1051" />
      <path
         d="m 2036.02,144.887 c 2.76,0 5.41,0.195 7.98,0.593 2.57,0.403 4.61,0.833 6.1,1.282 v -11.946 c -1.68,-0.796 -4.18,-1.472 -7.46,-2 -3.29,-0.546 -6.24,-0.8 -8.86,-0.8 -19.92,0 -29.87,10.468 -29.87,31.445 v 61.223 h -14.74 v 7.507 l 14.74,6.485 6.58,21.965 h 9.01 v -23.84 h 29.86 v -12.117 h -29.86 v -60.571 c 0,-6.179 1.46,-10.933 4.42,-14.265 2.93,-3.313 6.98,-4.961 12.1,-4.961"
         style="fill:#ee213a;fill-opacity:1;fill-rule:nonzero;stroke:none"
         id="path1053" />
      <path
         d="m 2086.27,133.891 h -15.59 v 102.91 h 15.59 z m -16.91,130.8 c 0,3.555 0.88,6.164 2.63,7.832 1.76,1.661 3.94,2.481 6.57,2.481 2.51,0 4.66,-0.852 6.49,-2.527 1.8,-1.704 2.71,-4.309 2.71,-7.786 0,-3.535 -0.91,-6.132 -2.71,-7.863 -1.83,-1.695 -3.98,-2.574 -6.49,-2.574 -2.63,0 -4.81,0.879 -6.57,2.574 -1.75,1.731 -2.63,4.328 -2.63,7.863"
         style="fill:#ee213a;fill-opacity:1;fill-rule:nonzero;stroke:none"
         id="path1055" />
      <path
         d="m 2189.71,133.891 v 66.582 c 0,8.359 -1.91,14.648 -5.71,18.781 -3.84,4.129 -9.8,6.18 -17.94,6.18 -10.77,0 -18.65,-2.911 -23.66,-8.743 -5.01,-5.808 -7.51,-15.418 -7.51,-28.816 v -53.984 h -15.59 v 102.91 h 12.67 l 2.54,-14.102 h 0.75 c 3.19,5.086 7.67,9.016 13.44,11.797 5.74,2.781 12.17,4.18 19.24,4.18 12.39,0 21.72,-3.008 27.98,-8.965 6.25,-5.977 9.38,-15.547 9.38,-28.691 v -67.129 h -15.59"
         style="fill:#ee213a;fill-opacity:1;fill-rule:nonzero;stroke:none"
         id="path1057" />
      <path
         d="m 2247.95,203.852 c 0,-7.215 2.02,-12.664 6.09,-16.348 4.07,-3.711 9.73,-5.535 16.99,-5.535 15.22,0 22.82,7.383 22.82,22.156 0,15.449 -7.7,23.184 -23.1,23.184 -7.33,0 -12.95,-1.973 -16.9,-5.911 -3.94,-3.953 -5.9,-9.812 -5.9,-17.546 z m -8.47,-87.239 c 0,-5.574 2.35,-9.785 7.05,-12.664 4.7,-2.883 11.42,-4.3357 20.2,-4.3357 13.06,0 22.75,1.9527 29.05,5.8597 6.29,3.933 9.42,9.238 9.42,15.925 0,5.586 -1.71,9.446 -5.15,11.594 -3.44,2.156 -9.93,3.25 -19.43,3.25 h -18.69 c -7.08,0 -12.59,-1.695 -16.52,-5.074 -3.95,-3.383 -5.93,-8.242 -5.93,-14.555 z m 82.07,120.188 v -9.863 l -19.06,-2.254 c 1.76,-2.207 3.32,-5.063 4.69,-8.586 1.38,-3.535 2.07,-7.539 2.07,-11.973 0,-10.09 -3.44,-18.125 -10.33,-24.141 -6.88,-6.004 -16.34,-9.011 -28.36,-9.011 -3.06,0 -5.94,0.254 -8.63,0.75 -6.64,-3.504 -9.95,-7.91 -9.95,-13.243 0,-2.8 1.14,-4.882 3.48,-6.23 2.3,-1.355 6.28,-2.031 11.91,-2.031 h 18.21 c 11.15,0 19.71,-2.324 25.69,-7.031 5.97,-4.688 8.96,-11.524 8.96,-20.458 0,-11.398 -4.57,-20.082 -13.7,-26.0659 -9.15,-5.9844 -22.48,-8.9649 -40.01,-8.9649 -13.46,0 -23.82,2.5 -31.12,7.5117 -7.29,5.0081 -10.94,12.0661 -10.94,21.2111 0,6.258 2,11.687 6.01,16.25 4,4.551 9.63,7.652 16.9,9.285 -2.63,1.199 -4.83,3.027 -6.61,5.559 -1.79,2.476 -2.68,5.41 -2.68,8.711 0,3.757 1,7.058 3,9.871 2,2.824 5.16,5.527 9.49,8.156 -5.33,2.207 -9.66,5.937 -13,11.187 -3.36,5.266 -5.02,11.274 -5.02,18.032 0,11.265 3.37,19.929 10.13,26.043 6.77,6.101 16.33,9.16 28.72,9.16 5.38,0 10.25,-0.625 14.56,-1.875 h 35.59"
         style="fill:#ee213a;fill-opacity:1;fill-rule:nonzero;stroke:none"
         id="path1059" />
      <path
         d="M 726.75,726.777 H 0 V 0.00390625 H 726.75 V 726.777"
         style="fill:#231f20;fill-opacity:1;fill-rule:nonzero;stroke:none"
         id="path1061" />
      <path
         d="m 117.922,482.934 c -16.254,0.254 -26.4884,-0.258 -41.7189,5.511 v 19.743 c 13.7461,-11.254 25.9729,-12.516 43.7149,-12.747 29.484,-1 47.457,12.235 47.457,35.485 0,17.746 -13.227,26.972 -28.715,35.742 l -33.972,19.484 c -18.2544,10.743 -28.9966,22.996 -29.2505,42.996 -0.2617,29.485 28.7385,46.969 60.2225,45.969 14.742,-0.484 23.973,0 37.485,-5.484 v -19.258 c -10.512,10 -21,12.258 -35.481,12.746 -20.488,1.254 -42.9765,-12.488 -41.2304,-33 1.2305,-13.226 10.2264,-20.484 21.9964,-27.226 l 29.715,-17.231 c 22.488,-12.992 41.226,-19.996 42.488,-51.734 1.484,-41.254 -39,-51.742 -72.711,-50.996"
         style="fill:#ffffff;fill-opacity:1;fill-rule:nonzero;stroke:none"
         id="path1063" />
      <path
         d="m 420.227,654.547 c -1.434,-2.613 -2.614,-4.254 -3.559,-7.102 L 357.723,483.129 311.086,608.141 265.422,482.176 202.918,650.523 c -0.719,2.61 -1.41,4.258 -3.313,6.641 -2.125,2.586 -3.535,3.996 -6.378,5.664 h 32.406 c -1.184,-1.894 -1.871,-3.078 -2.129,-5.203 -0.461,-1.898 -0.695,-3.309 0,-5.203 l 43.328,-123.121 37.148,98.965 -8.738,22.257 c -1.183,3.075 -2.847,4.485 -4.746,6.868 -1.668,2.129 -3.078,3.543 -4.973,5.437 h 32.204 c -0.95,-1.668 -1.434,-2.613 -1.899,-4.488 -0.719,-3.332 -0.23,-5.461 0.719,-8.535 l 43.558,-120.989 40.254,119.579 c 1.411,3.074 2.36,5.203 2.129,8.281 -0.261,2.617 -0.718,4.258 -2.129,6.41 h 26.024 c -2.617,-3.106 -4.028,-5.231 -6.156,-8.539"
         style="fill:#ffffff;fill-opacity:1;fill-rule:nonzero;stroke:none"
         id="path1065" />
      <path
         d="m 446.969,611.453 h -21.617 l 0.64,-0.922 c 1.207,-1.843 1.903,-3.304 2.567,-5.511 0.847,-2.516 0.972,-3.977 0.972,-6.332 V 497.391 c 0,-2.438 0,-4.051 -0.945,-6.258 v -0.028 l -0.027,-0.046 c -0.438,-1.539 -0.895,-2.493 -1.899,-4.004 l -0.613,-0.918 h 1.101 19.485 1.051 l -0.539,0.918 c -0.254,0.41 -0.512,0.797 -0.743,1.156 -0.714,1.074 -1.285,1.926 -1.511,3.281 -0.489,4.102 -0.489,9.641 -0.489,16.074 v 91.454 c 0,1.82 0,2.921 1.125,6.82 0.672,1.797 1.161,3.129 1.981,4.738 l 0.433,0.875 h -0.972"
         style="fill:#ffffff;fill-opacity:1;fill-rule:nonzero;stroke:none"
         id="path1067" />
      <path
         d="m 637.508,655.262 c -0.695,-3.793 -0.695,-5.922 -0.695,-9.461 L 637.02,480.277 494.059,638.211 V 506.789 c 0,-5.203 0,-5.203 1.64,-13.023 0.489,-2.821 1.207,-4.489 2.153,-7.567 h -22.485 c 1.641,2.36 2.594,3.77 3.078,6.387 0.95,3.562 0.95,5.926 0.95,9.484 v 147.731 c 0,2.844 -0.489,4.972 -1.899,7.586 -1.203,2.617 -2.617,4.027 -4.976,5.441 h 26.027 L 622.355,521.48 v 112.247 c 0,8.507 0.489,13.949 -1.179,22.484 -0.485,2.586 -0.949,4.254 -1.668,6.871 h 19.898 c -0.953,-2.848 -1.41,-4.742 -1.898,-7.82"
         style="fill:#ffffff;fill-opacity:1;fill-rule:nonzero;stroke:none"
         id="path1069" />
      <path
         d="m 200.313,277.582 h -47.122 c 1.434,1.895 1.922,3.074 2.844,4.973 1.207,3.308 1.668,5.691 1.668,9.226 V 437.41 c 0,4.024 -0.719,6.637 -2.359,10.406 -1.176,2.618 -2.153,4.282 -3.793,6.641 h 53.504 c 22.949,0 40.687,-19.402 41.894,-42.379 0.465,-16.82 -6.383,-25.812 -19.176,-33.148 l -6.636,-4.024 7.097,-2.617 c 19.664,-6.621 30.563,-21.055 30.563,-44.258 -0.254,-31.25 -22.512,-50.449 -58.484,-50.449 m -6.614,165.027 H 176.395 V 378.93 h 15.41 c 25.789,0 37.636,13.972 36.918,33.148 -0.95,17.77 -13.028,30.531 -35.024,30.531 m -0.972,-75.039 c -5.899,0 -9.461,0 -15.387,-1.433 v -75.762 c 6.414,-1.902 10.672,-2.617 17.308,-2.129 23.176,1.406 45.918,14.434 45.204,40.02 -0.719,30.3 -23.668,38.586 -47.125,39.304"
         style="fill:#ffffff;fill-opacity:1;fill-rule:nonzero;stroke:none"
         id="path1071" />
      <path
         d="m 424.133,446.641 c -0.488,-3.313 -0.231,-5.207 -0.231,-8.512 V 334.652 c 0,-34.101 -29.125,-58.972 -65.554,-59.668 -39.078,-0.476 -70.793,24.621 -70.793,60.618 v 101.574 c 0,3.078 0.23,4.976 -0.231,8.054 -0.484,3.793 -0.945,5.922 -2.152,9.227 h 24.152 c -1.179,-2.613 -1.64,-4.254 -2.129,-7.328 -0.718,-3.106 -0.484,-5.234 -0.484,-8.313 V 337.73 c 0,-27.226 24.402,-48.3 51.637,-47.355 26.972,0.715 45.918,20.84 45.918,45.938 v 101.328 c 0,3.562 0,5.687 -0.489,9 -0.718,3.074 -1.183,4.968 -2.359,7.816 h 24.613 c -0.953,-2.848 -1.41,-4.742 -1.898,-7.816"
         style="fill:#ffffff;fill-opacity:1;fill-rule:nonzero;stroke:none"
         id="path1073" />
      <path
         d="m 563.484,277.348 -71.019,92.343 c -1.902,2.364 -2.617,4.024 -4.742,5.696 -0.953,0.945 -1.903,1.414 -3.082,2.129 v -81.223 c 0,-3.801 -0.231,-5.93 0.718,-9.719 0.461,-3.308 1.411,-5.203 2.618,-8.511 h -26.051 c 1.41,2.847 2.617,4.492 2.82,7.332 0.719,3.566 0.719,11.386 0.719,18 v 126.906 c 0,6.64 -0.231,10.441 -1.41,17.051 -0.719,3.078 -1.899,4.746 -3.336,7.359 H 514 c 23.199,0 44.043,-15.41 43.324,-40.738 -0.48,-24.645 -22.043,-45.715 -48.07,-41.696 1.414,-1.148 2.152,-2.117 3.543,-3.297 5,-4.75 7.844,-7.824 12.328,-13.488 l 42.121,-53.508 c 5.465,-7.105 9.719,-12.793 15.156,-17.539 3.309,-2.82 5.461,-4.492 9,-7.097 z M 503.59,444.047 c -7.36,0 -11.844,-0.258 -18.715,-3.305 v -61.097 c 3.328,-0.493 9.719,-0.723 15.383,-0.493 24.406,1.899 39.07,14.692 37.637,34.332 -0.95,14.231 -5.668,29.379 -34.305,30.563"
         style="fill:#ffffff;fill-opacity:1;fill-rule:nonzero;stroke:none"
         id="path1075" />
      <path
         d="m 378.664,238.5 c -0.719,-3.801 -0.719,-5.918 -0.719,-9.465 L 378.176,63.5195 235.219,221.449 V 90.0547 c 0,-5.207 0,-5.207 1.636,-13.0313 0.493,-2.8398 1.208,-4.5078 2.157,-7.5859 h -22.489 c 1.645,2.3828 2.59,3.7969 3.079,6.418 0.921,3.5351 0.921,5.914 0.921,9.4531 V 233.063 c 0,2.847 -0.457,4.976 -1.871,7.566 -1.179,2.617 -2.617,4.055 -4.972,5.461 h 26.023 L 363.512,104.723 v 112.246 c 0,8.504 0.461,13.972 -1.18,22.476 -0.488,2.621 -0.949,4.258 -1.664,6.875 h 19.891 c -0.95,-2.847 -1.407,-4.746 -1.895,-7.82"
         style="fill:#ffffff;fill-opacity:1;fill-rule:nonzero;stroke:none"
         id="path1077" />
      <path
         d="M 520.68,69.4453 H 418.641 c 1.664,2.3828 2.382,4.0274 3.097,6.6445 0.95,3.3008 0.465,5.6641 0.465,8.9922 v 148.223 c 0,3.078 -0.465,4.968 -1.433,7.59 -0.954,2.128 -1.641,3.296 -3.313,4.941 h 90.195 v -17.734 c -2.125,2.128 -4.023,3.296 -6.871,4.246 -4.019,1.418 -6.867,0.722 -10.89,0.722 h -48.047 v -58.254 h 65.808 v -16.812 c -3.535,1.656 -5.918,2.383 -9.945,3.328 -2.848,0.461 -4.973,0.461 -7.816,0.461 H 442.563 V 82.6992 h 56.582 c 7.796,0 12.308,0.4883 19.636,2.8438 3.313,0.9531 5.203,1.9023 8.051,3.7968 L 520.68,69.4453"
         style="fill:#ffffff;fill-opacity:1;fill-rule:nonzero;stroke:none"
         id="path1079" />
      <path
         d="m 103.59,189.855 c 0.101,0 1.156,0.336 1.363,0.208 0.231,-0.125 3.383,-1.946 3.383,-1.946 0.023,0 2.871,-0.152 3.691,-0.203 0.254,-0.027 1.895,-0.184 2.18,-0.234 0.281,-0.047 4.281,-2.586 4.406,-2.715 0.387,-0.442 1.567,-2.82 1.797,-3.313 0.516,-1.199 0.184,-3.152 0.254,-4.351 0.031,-0.395 -0.226,-1.621 -0.355,-2.004 -0.204,-0.567 -0.36,-2.695 -0.336,-2.774 0.078,-1.171 1.695,-2.839 2.593,-2.968 1.204,-0.203 3.664,1.484 3.586,2.761 -0.023,0.442 -0.226,0.364 -0.281,0.801 -0.152,0.949 -2.742,4.25 -0.207,9.692 1.258,2.714 4.441,4.226 6.902,4.558 1.254,0.188 2.844,-0.144 4.18,0.137 1.254,0.273 2.305,0.996 3.535,1.457 0,0 0.77,-0.664 0.871,-0.898 0.176,-0.461 -0.203,-1.567 -0.359,-2.024 -0.59,-1.816 0.82,-6.055 0.945,-6.406 0.34,-1.106 -0.613,-5.137 -1.254,-6.16 -0.558,-0.891 -1.539,-2.121 -2.871,-2.766 -2.355,-1.102 -8.281,0.176 -9.152,-3.848 -0.074,-0.379 -0.332,-1.257 -0.129,-1.613 0.18,-0.391 1.848,-1.543 2.078,-1.558 0.051,0 0.461,0.046 0.461,0.046 2.027,0.207 2.926,1.438 5.231,2.637 0.953,0.52 4,1.492 5.023,1.492 l 0.234,-0.34 c 0.278,-0.222 1.129,0.11 1.485,0.032 0.539,-0.11 2.359,-0.617 2.539,-0.742 1.488,-1.079 2.793,-4.133 3.336,-5.52 0.433,-1.121 1.996,-3.992 1.484,-5 -0.695,-1.25 -2.976,-2.258 -4.023,-3.301 -0.719,-0.722 -1.774,-2.051 -3.157,-2.722 -0.488,-0.227 -2.152,-0.481 -2.617,-0.559 -2.226,-0.332 -6.586,1.641 -8.226,4.59 -0.774,1.328 -0.465,2.969 -1.77,4.328 -0.922,0.945 -3.695,1.512 -5.051,0 -0.179,-0.207 -0.742,-1.945 -0.695,-2.258 0.055,-0.43 0.387,-0.535 0.41,-0.945 0.031,-0.102 -0.304,-0.637 -0.254,-0.696 0.563,-1.406 2.926,-1.972 3.899,-3.093 0.797,-0.903 1.078,-2.032 1.433,-2.778 0.465,-0.972 1,-3.484 1,-3.582 -0.078,-0.847 0.028,-2.468 -0.281,-3.23 -0.719,-1.723 -2.562,-3.488 -4.387,-4.57 -1.714,-1.028 -2.562,-2.817 -4.125,-3.125 -1.64,-0.332 -3.175,2.285 -4.539,3.64 -0.355,0.332 -1.382,0.977 -1.691,1.328 -2,2.239 -2.152,4.493 -2.129,6.336 0,0.696 -0.18,1.465 0.055,2.082 0.332,0.84 1.949,3.282 2.281,3.582 1.129,1.157 2.617,1.594 3.152,2.715 0.184,0.41 0.41,1.781 0.254,2.192 -0.304,0.679 -1.922,2.097 -1.996,2.144 -1.207,0.727 -4,-2.613 -4.078,-2.84 -0.133,-0.359 -2.539,-4.238 -2.895,-4.543 -0.953,-0.816 -2.57,-1.543 -3.593,-1.746 -0.41,-0.066 -2.586,-0.429 -3.203,-0.461 -1.282,-0.047 -4.2582,1.418 -5.3325,2.59 -1.0781,1.184 -3.4882,2.852 -3.4882,2.852 0,0 -0.3829,-0.059 -0.461,-0.078 -0.4375,1.125 -0.7969,1.281 -0.5156,2.175 0.3086,0.981 1.2578,1.567 1.7969,2.512 0.664,1.262 1.0039,3.406 2.0273,4.695 0.2305,0.305 0.7188,0.434 1.0274,0.696 0.5351,0.507 1.7657,1.843 2.4607,2.226 1.309,0.723 4.227,0.723 5.41,0.235 0.614,-0.235 3.047,-1.387 3.407,-1.641 0.41,-0.313 0.589,-1.023 0.949,-1.355 0.203,-0.188 0.898,-0.571 1.332,-0.825 l 0.359,0.227 c 1.028,-0.156 2.258,-0.156 3.125,0.93 0.285,0.347 0.672,1.406 0.465,1.843 -0.156,0.352 -4.484,3.157 -4.769,3.223 -0.309,0.078 -1.106,-0.145 -1.485,-0.02 -0.769,0.235 -1.078,0.774 -1.875,1.204 -0.355,0.203 -1.277,0.332 -1.664,0.613 -2.281,1.562 -4.433,4.875 -4.465,7.461 -0.023,1.953 1.032,3.972 1.489,5.847 0.437,1.719 -0.665,2.668 -0.715,4.282 -0.028,0.468 0.383,0.945 0.535,1.382"
         style="fill:#ffffff;fill-opacity:1;fill-rule:nonzero;stroke:none"
         id="path1081" />
      <path
         d="m 623.211,189.855 c -0.106,0 -1.156,0.336 -1.387,0.208 -0.207,-0.125 -3.359,-1.946 -3.359,-1.946 -0.027,0 -2.871,-0.152 -3.664,-0.203 -0.281,-0.027 -1.899,-0.184 -2.207,-0.234 -0.258,-0.047 -4.281,-2.586 -4.406,-2.742 -0.415,-0.415 -1.594,-2.793 -1.797,-3.286 -0.516,-1.226 -0.184,-3.152 -0.286,-4.351 0,-0.395 0.258,-1.621 0.387,-2.004 0.203,-0.567 0.36,-2.715 0.336,-2.774 -0.078,-1.171 -1.695,-2.839 -2.594,-2.968 -1.207,-0.203 -3.668,1.484 -3.589,2.746 0.027,0.457 0.23,0.379 0.285,0.789 0.152,0.976 2.715,4.277 0.207,9.719 -1.258,2.714 -4.442,4.226 -6.903,4.558 -1.254,0.156 -2.843,-0.144 -4.179,0.137 -1.254,0.254 -2.305,0.996 -3.535,1.457 0,0 -0.77,-0.664 -0.875,-0.898 -0.172,-0.461 0.207,-1.567 0.363,-2.024 0.59,-1.816 -0.82,-6.055 -0.945,-6.406 -0.34,-1.106 0.613,-5.156 1.253,-6.16 0.563,-0.891 1.536,-2.121 2.872,-2.766 2.382,-1.102 8.304,0.176 9.156,-3.848 0.07,-0.379 0.332,-1.257 0.148,-1.613 -0.203,-0.391 -1.871,-1.543 -2.101,-1.558 -0.051,0 -0.461,0.046 -0.461,0.046 -2.028,0.207 -2.926,1.438 -5.231,2.637 -0.953,0.52 -4,1.492 -5.023,1.492 l -0.235,-0.34 c -0.277,-0.222 -1.128,0.11 -1.484,0.032 -0.535,-0.129 -2.359,-0.617 -2.539,-0.742 -1.488,-1.079 -2.793,-4.133 -3.336,-5.52 -0.434,-1.121 -1.996,-4.023 -1.461,-5 0.641,-1.25 2.949,-2.273 3.977,-3.301 0.742,-0.722 1.797,-2.051 3.179,-2.722 0.489,-0.227 2.153,-0.508 2.618,-0.559 2.226,-0.332 6.562,1.641 8.226,4.59 0.774,1.308 0.465,2.969 1.77,4.328 0.922,0.945 3.695,1.512 5.05,0 0.18,-0.207 0.743,-1.945 0.696,-2.258 -0.055,-0.43 -0.387,-0.535 -0.41,-0.945 0,-0.102 0.277,-0.637 0.253,-0.715 -0.562,-1.387 -2.921,-1.953 -3.898,-3.074 -0.797,-0.903 -1.074,-2.032 -1.434,-2.778 -0.464,-0.972 -1.003,-3.484 -1.003,-3.582 0.082,-0.847 -0.024,-2.468 0.285,-3.23 0.718,-1.75 2.562,-3.488 4.359,-4.57 1.742,-1.028 2.59,-2.817 4.152,-3.125 1.641,-0.332 3.176,2.285 4.539,3.64 0.36,0.332 1.383,0.977 1.692,1.328 2,2.239 2.176,4.493 2.152,6.336 0,0.664 0.18,1.438 -0.078,2.055 -0.308,0.867 -1.949,3.277 -2.281,3.609 -1.125,1.157 -2.641,1.594 -3.152,2.715 -0.176,0.395 -0.411,1.781 -0.231,2.192 0.281,0.679 1.898,2.07 1.973,2.117 1.207,0.754 4,-2.61 4.078,-2.813 0.133,-0.359 2.539,-4.238 2.894,-4.57 0.926,-0.789 2.571,-1.531 3.567,-1.719 0.437,-0.066 2.617,-0.429 3.207,-0.476 1.332,-0.032 4.254,1.433 5.332,2.586 1.101,1.203 3.512,2.871 3.512,2.871 0,0 0.41,-0.059 0.46,-0.078 0.438,1.125 0.766,1.281 0.512,2.175 -0.304,0.981 -1.281,1.543 -1.797,2.512 -0.664,1.262 -1,3.406 -2.023,4.668 -0.254,0.332 -0.719,0.461 -1.027,0.723 -0.559,0.507 -1.766,1.843 -2.461,2.226 -1.309,0.723 -4.227,0.723 -5.379,0.235 -0.617,-0.262 -3.078,-1.387 -3.438,-1.641 -0.387,-0.313 -0.566,-1.023 -0.926,-1.355 -0.203,-0.188 -0.894,-0.571 -1.355,-0.852 l -0.336,0.254 c -1.051,-0.156 -2.281,-0.156 -3.148,0.93 -0.286,0.347 -0.672,1.406 -0.465,1.843 0.156,0.352 4.484,3.125 4.769,3.223 0.309,0.078 1.129,-0.145 1.485,-0.051 0.769,0.266 1.078,0.805 1.875,1.235 0.379,0.203 1.254,0.332 1.664,0.593 2.281,1.563 4.433,4.864 4.465,7.481 0.023,1.953 -1.028,3.957 -1.493,5.847 -0.41,1.719 0.664,2.668 0.719,4.282 0.024,0.437 -0.387,0.945 -0.535,1.382"
         style="fill:#ffffff;fill-opacity:1;fill-rule:nonzero;stroke:none"
         id="path1083" />
    </g>
  </g>
</svg>
